# Wavefront OBJ exported by MilkShape 3D

v -3.903848 0.015234 0.013136
v -3.937181 0.015234 10.013136
v -3.870512 0.015234 16.046469
v -3.903848 0.015234 25.946470
v -3.870512 0.015234 30.979803
v -0.070512 0.015234 0.013138
v -1.903846 0.015235 5.379805
v -1.937180 0.015234 9.113138
v 0.796154 0.015234 10.513138
v 3.029489 0.015234 16.113138
v 0.529489 0.015235 17.579805
v -0.803845 0.015234 21.046473
v 1.462822 0.015234 24.013140
v 3.196158 0.015235 26.213139
v 2.896158 0.015235 31.246473
v -0.970512 0.015234 35.246475
v 0.029489 0.015234 41.646477
v -3.937180 0.015234 41.079811
# 18 vertices

vt 0.000000 1.000000
# 1 texture coordinates

vn 0.000000 1.000000 -0.000000
# 1 normals

g Triangles
s 1
f 6/1/1 1/1/1 7/1/1
f 2/1/1 7/1/1 1/1/1
f 8/1/1 7/1/1 2/1/1
f 2/1/1 9/1/1 8/1/1
f 9/1/1 2/1/1 3/1/1
f 10/1/1 9/1/1 3/1/1
f 3/1/1 11/1/1 10/1/1
f 11/1/1 3/1/1 12/1/1
f 3/1/1 4/1/1 12/1/1
f 13/1/1 12/1/1 4/1/1
f 13/1/1 4/1/1 5/1/1
f 14/1/1 13/1/1 5/1/1
f 15/1/1 14/1/1 5/1/1
f 5/1/1 16/1/1 15/1/1
f 16/1/1 5/1/1 18/1/1
f 17/1/1 16/1/1 18/1/1
# 16 triangles in group

# 16 triangles total

