# Wavefront OBJ exported by MilkShape 3D

v -0.016346 -6.291304 0.013136
v -0.016346 -6.324637 10.013138
v -0.016345 -6.257968 16.046471
v -0.016346 -6.291304 25.946472
v -0.016345 -6.257968 30.979805
v -0.016345 -2.457966 0.013138
v -0.016346 -4.291301 5.379805
v -0.016346 -4.324635 9.113140
v -0.016345 -1.591300 10.513140
v -0.016345 0.642037 16.113140
v -0.016346 -1.857965 17.579807
v -0.016345 -3.191300 21.046474
v -0.016345 -0.924632 24.013142
v -0.016346 0.808705 26.213139
v -0.016346 0.508705 31.246475
v -0.016346 -3.357966 35.246475
v -0.016345 -2.357965 41.646477
v -0.016345 -6.324636 41.079811
v 0.000000 7.285236 33.687988
v 0.000000 7.445236 40.287987
v 0.000000 3.685234 36.607986
v 0.000000 4.045234 42.007988
v 0.000000 5.285234 50.767990
v 0.000000 0.485234 50.647987
v 0.000000 -3.234766 48.207985
v 0.000000 -4.274766 54.007988
v 0.000000 -6.794766 47.687988
v 0.000000 -7.674766 56.447990
# 28 vertices

vt 0.000000 1.000000
# 1 texture coordinates

vn -1.000000 0.000000 -0.000000
# 1 normals

g Triangles
s 1
f 6/1/1 1/1/1 7/1/1
f 2/1/1 7/1/1 1/1/1
f 8/1/1 7/1/1 2/1/1
f 2/1/1 9/1/1 8/1/1
f 9/1/1 2/1/1 3/1/1
f 10/1/1 9/1/1 3/1/1
f 3/1/1 11/1/1 10/1/1
f 11/1/1 3/1/1 12/1/1
f 3/1/1 4/1/1 12/1/1
f 13/1/1 12/1/1 4/1/1
f 13/1/1 4/1/1 5/1/1
f 14/1/1 13/1/1 5/1/1
f 15/1/1 14/1/1 5/1/1
f 5/1/1 16/1/1 15/1/1
f 16/1/1 5/1/1 18/1/1
f 17/1/1 16/1/1 18/1/1
f 20/1/1 19/1/1 21/1/1
f 20/1/1 21/1/1 22/1/1
f 20/1/1 22/1/1 24/1/1
f 23/1/1 20/1/1 24/1/1
f 25/1/1 27/1/1 26/1/1
f 26/1/1 27/1/1 28/1/1
# 22 triangles in group

# 22 triangles total

