# Wavefront OBJ exported by MilkShape 3D

v -0.016346 -2.950394 0.013136
v -0.016346 -2.983727 10.013136
v -0.016345 -2.917059 16.046469
v -0.016346 -2.950394 25.946470
v -0.016345 -2.917059 30.979803
v -0.016345 0.882943 0.013138
v -0.016346 -0.950391 5.379805
v -0.016346 -0.983726 9.113138
v -0.016345 1.749609 10.513138
v -0.016345 3.982946 16.113138
v -0.016346 1.482944 17.579805
v -0.016345 0.149609 21.046473
v -0.016345 2.416277 24.013140
v -0.016346 4.149614 26.213139
v -0.016346 3.849615 31.246473
v -0.016346 -0.017057 35.246475
v -0.016345 0.982944 41.646477
v -0.016345 -2.983726 41.079811
v 0.000000 10.626143 33.687988
v 0.000000 10.786143 40.287991
v 0.000000 7.026144 36.607990
v 0.000000 7.386144 42.007988
v 0.000000 8.626143 50.767990
v 0.000000 3.826143 50.647991
v 0.000000 0.106143 48.207989
v 0.000000 -0.933856 54.007992
v 0.000000 -3.453857 47.687992
v 0.000000 -4.333857 56.447990
# 28 vertices

vt 0.000000 1.000000
# 1 texture coordinates

vn -1.000000 0.000000 -0.000000
# 1 normals

g Triangles
s 1
f 6/1/1 1/1/1 7/1/1
f 2/1/1 7/1/1 1/1/1
f 8/1/1 7/1/1 2/1/1
f 2/1/1 9/1/1 8/1/1
f 9/1/1 2/1/1 3/1/1
f 10/1/1 9/1/1 3/1/1
f 3/1/1 11/1/1 10/1/1
f 11/1/1 3/1/1 12/1/1
f 3/1/1 4/1/1 12/1/1
f 13/1/1 12/1/1 4/1/1
f 13/1/1 4/1/1 5/1/1
f 14/1/1 13/1/1 5/1/1
f 15/1/1 14/1/1 5/1/1
f 5/1/1 16/1/1 15/1/1
f 16/1/1 5/1/1 18/1/1
f 17/1/1 16/1/1 18/1/1
f 20/1/1 19/1/1 21/1/1
f 20/1/1 21/1/1 22/1/1
f 20/1/1 22/1/1 24/1/1
f 23/1/1 20/1/1 24/1/1
f 25/1/1 27/1/1 26/1/1
f 26/1/1 27/1/1 28/1/1
# 22 triangles in group

# 22 triangles total

